<?xml version="1.0" encoding="UTF-8" standalone="no"?>
<svg
   version="1.1"
   id="Layer_1"
   x="0px"
   y="0px"
   width="122.88px"
   height="122.88px"
   viewBox="0 0 122.88 122.88"
   enable-background="new 0 0 122.88 122.88"
   xml:space="preserve"
   sodipodi:docname="comm-go.svg"
   inkscape:version="1.3.2 (091e20ef0f, 2023-11-25)"
   xmlns:inkscape="http://www.inkscape.org/namespaces/inkscape"
   xmlns:sodipodi="http://sodipodi.sourceforge.net/DTD/sodipodi-0.dtd"
   xmlns="http://www.w3.org/2000/svg"
   xmlns:svg="http://www.w3.org/2000/svg"><defs
     id="defs1" /><sodipodi:namedview
     id="namedview1"
     pagecolor="#ffffff"
     bordercolor="#000000"
     borderopacity="0.25"
     inkscape:showpageshadow="2"
     inkscape:pageopacity="0.0"
     inkscape:pagecheckerboard="0"
     inkscape:deskcolor="#d1d1d1"
     inkscape:zoom="6.9417319"
     inkscape:cx="61.36797"
     inkscape:cy="61.36797"
     inkscape:window-width="1920"
     inkscape:window-height="1123"
     inkscape:window-x="0"
     inkscape:window-y="0"
     inkscape:window-maximized="1"
     inkscape:current-layer="g1" /><g
     id="g1"><path
       d="M61.439,0L61.439,0v0.016c-16.976,0-32.335,6.874-43.443,17.981S0.016,44.464,0.016,61.438H0v0.002l0,0h0.016 c0,16.978,6.874,32.336,17.981,43.444c11.107,11.106,26.467,17.98,43.441,17.98v0.016h0.002l0,0v-0.016 c16.977,0,32.336-6.874,43.443-17.98c11.107-11.108,17.981-26.467,17.981-43.441h0.016v-0.003l0,0h-0.016 c0-16.976-6.874-32.335-17.981-43.442S78.416,0.016,61.442,0.016V0H61.439L61.439,0z M51.181,42.479 c-1.909-1.964-1.864-5.1,0.098-7.01c1.961-1.909,5.1-1.866,7.009,0.098l21.838,22.519l-3.554,3.456l3.569-3.458 c1.91,1.971,1.862,5.116-0.108,7.027c-0.057,0.057-0.115,0.109-0.175,0.161L58.288,87.329c-1.909,1.963-5.048,2.007-7.009,0.097 c-1.962-1.907-2.007-5.045-0.098-7.009l18.473-18.889L51.181,42.479L51.181,42.479z"
       id="path1" /><path
       style="fill:#0d7297;stroke-width:0.144056;fill-opacity:1"
       d="M 56.253973,122.5859 C 48.388509,121.85453 41.291858,119.87424 34.429448,116.49589 22.12382,110.43784 12.37083,100.67477 6.3411157,88.378521 0.51082356,76.488946 -1.2772021,63.259451 1.1594368,50.039587 3.1063843,39.476519 8.0968282,29.240279 15.301315,21.032215 25.940211,8.9113343 40.589582,1.5759018 56.748289,0.27832507 59.445096,0.06176604 66.137589,0.18508251 68.642812,0.49749462 82.136957,2.1802722 94.438739,8.0310055 104.02133,17.323537 c 5.30871,5.148015 9.31324,10.643459 12.51755,17.177939 5.77015,11.766934 7.58021,24.841501 5.25506,37.958827 -0.9424,5.316601 -2.76462,10.835675 -5.25567,15.918218 -5.99502,12.231769 -15.71665,21.987519 -27.940893,28.038969 -6.373283,3.15501 -12.796801,5.07006 -20.026593,5.97056 -2.180511,0.27159 -10.147491,0.39957 -12.316811,0.19785 z m -0.05011,-33.917731 c 0.397354,-0.118001 0.987409,-0.393508 1.311231,-0.612239 0.323823,-0.218729 5.682365,-5.609175 11.907873,-11.978767 C 82.221835,62.982072 81.519733,63.823366 81.529922,61.569996 81.540269,59.281686 82.120342,59.985265 69.456749,46.926255 63.36786,40.647244 58.055849,35.26494 57.65228,34.965581 55.245915,33.180597 51.775677,33.96281 50.33816,36.61423 c -0.474209,0.874651 -0.494691,0.975054 -0.494691,2.425019 0,1.368294 0.03742,1.583546 0.392242,2.256376 0.284312,0.539126 2.979723,3.410381 9.795826,10.434893 5.171972,5.33011 9.403585,9.735952 9.403585,9.790761 0,0.05481 -4.227873,4.424146 -9.395273,9.709634 -10.482247,10.721795 -10.15332,10.325282 -10.247063,12.352609 -0.06223,1.345831 0.214698,2.34026 0.923516,3.316271 1.181306,1.626609 3.475462,2.365906 5.487561,1.768376 z"
       id="path2"
       inkscape:export-filename="comm-go.png"
       inkscape:export-xdpi="401.1908"
       inkscape:export-ydpi="401.1908" /></g></svg>
