<?xml version="1.0" encoding="UTF-8" standalone="no"?>
<svg
   version="1.1"
   id="Layer_1"
   x="0px"
   y="0px"
   width="122.88"
   height="122.88"
   viewBox="0 0 122.88 122.88"
   enable-background="new 0 0 122.88 122.88"
   xml:space="preserve"
   sodipodi:docname="diago-icon.svg"
   inkscape:export-filename="diagox-icon.svg"
   inkscape:export-xdpi="96"
   inkscape:export-ydpi="96"
   inkscape:version="1.3.2 (091e20ef0f, 2023-11-25)"
   xmlns:inkscape="http://www.inkscape.org/namespaces/inkscape"
   xmlns:sodipodi="http://sodipodi.sourceforge.net/DTD/sodipodi-0.dtd"
   xmlns="http://www.w3.org/2000/svg"
   xmlns:svg="http://www.w3.org/2000/svg"><sodipodi:namedview
     id="namedview1"
     pagecolor="#ffffff"
     bordercolor="#000000"
     borderopacity="0.25"
     inkscape:showpageshadow="2"
     inkscape:pageopacity="0.0"
     inkscape:pagecheckerboard="0"
     inkscape:deskcolor="#d1d1d1"
     inkscape:zoom="1.7018785"
     inkscape:cx="-12.339306"
     inkscape:cy="53.176534"
     inkscape:window-width="1920"
     inkscape:window-height="1131"
     inkscape:window-x="0"
     inkscape:window-y="0"
     inkscape:window-maximized="1"
     inkscape:current-layer="Layer_1" /><defs
     id="defs1" /><text
     xml:space="preserve"
     style="font-style:normal;font-variant:normal;font-weight:normal;font-stretch:normal;font-size:76.9655px;font-family:sans-serif;-inkscape-font-specification:'sans-serif, ';font-variant-ligatures:normal;font-variant-caps:normal;font-variant-numeric:normal;font-variant-east-asian:normal;display:inline;mix-blend-mode:normal;fill:#2794cd;fill-opacity:0.966612;stroke-width:0.572769"
     x="25.599726"
     y="103.69601"
     id="text3"
     transform="scale(1.2430367,0.80448145)"><tspan
       id="tspan3"
       x="25.599726"
       y="103.69601"
       style="font-weight:bold;fill:#2794cd;fill-opacity:0.966612;stroke-width:0.572769" /></text><g
     id="g5"
     clip-path="none"><g
       id="g4"><path
         id="text1"
         style="font-style:normal;font-variant:normal;font-weight:normal;font-stretch:normal;font-size:160.412px;font-family:sans-serif;-inkscape-font-specification:'sans-serif, ';font-variant-ligatures:normal;font-variant-caps:normal;font-variant-numeric:normal;font-variant-east-asian:normal;mix-blend-mode:normal;fill:#1179bd;fill-opacity:1;stroke-width:13.3677"
         d="M 30.23179,7.8948034 6.0103984,122.42871 H 41.30039 c 8.234467,0 15.720978,-1.06941 22.458268,-3.20824 6.737291,-2.13882 12.672356,-5.24076 17.80553,-9.30451 5.240115,-4.06377 9.623734,-8.9835 13.152792,-14.758317 3.529056,-5.881761 6.2032,-12.510893 8.0212,-19.889831 1.818,-7.378937 2.72633,-15.400598 2.72633,-24.062828 0,-14.009287 -3.9022,-24.703449 -11.7089,-32.082385 C 86.055848,11.63672 75.201232,7.8948034 61.191947,7.8948034 Z M 49.961895,27.784635 h 8.984408 c 6.844232,0 12.190692,2.032514 16.040572,6.096277 3.956821,3.956821 5.935177,10.158603 5.935177,18.606951 0,5.240115 -0.48142,10.37456 -1.44389,15.400793 -0.96247,4.919291 -2.459406,9.46275 -4.491287,13.633454 -2.031881,4.170704 -4.598842,7.808382 -7.700135,10.909674 -2.994351,3.101293 -6.576828,5.559078 -10.747532,7.377078 -4.170703,1.711058 -8.875882,2.567838 -14.115996,2.567838 H 34.08094 Z m -29.77679,79.226645 a 5.0892768,5.4414644 0 0 1 5.089391,5.44133 5.0892768,5.4414644 0 0 1 -5.089391,5.44132 5.0892768,5.4414644 0 0 1 -5.089391,-5.44132 5.0892768,5.4414644 0 0 1 5.089391,-5.44133 z m 13.848134,0.86288 a 3.8013173,4.3616267 0 0 1 3.801448,4.36221 3.8013173,4.3616267 0 0 1 -3.801448,4.36012 3.8013173,4.3616267 0 0 1 -3.801449,-4.36012 3.8013173,4.3616267 0 0 1 3.801449,-4.36221 z"
         transform="scale(1.0645613,0.93935406)" /></g></g></svg>
